<svg width="300" height="287" viewBox="0 0 300 287" fill="none" xmlns="http://www.w3.org/2000/svg">
<path d="M29.8316 175.636C46.3385 237.24 109.392 273.644 170.996 257.137C232.601 240.63 269.005 177.577 252.498 115.973C235.991 54.3682 172.938 17.9641 111.333 34.471C49.7288 50.9778 13.3248 114.031 29.8316 175.636Z" fill="#FFDD67"/>
<path d="M205.932 87.9523C221.335 122.73 268.759 101.725 253.356 66.9475C242.153 41.6548 207.57 27.138 207.57 27.138C207.57 27.138 194.729 62.6596 205.932 87.9523Z" fill="#65B1EF"/>
<path d="M192.792 167.769C203.04 165.023 209.122 154.489 206.376 144.241C203.63 133.993 193.096 127.912 182.848 130.658C172.6 133.404 166.519 143.937 169.265 154.185C172.011 164.433 182.544 170.515 192.792 167.769Z" fill="#664E27"/>
<path d="M107.437 190.64C117.684 187.894 123.766 177.36 121.02 167.112C118.274 156.864 107.741 150.783 97.4927 153.528C87.2447 156.274 81.1631 166.808 83.9091 177.056C86.655 187.304 97.1886 193.385 107.437 190.64Z" fill="#664E27"/>
<path d="M107.37 114.686C98.1798 127.888 83.4153 136.617 67.0331 137.825C64.707 138.05 64.9397 146.341 67.7363 146.387C86.4446 144.954 103.608 134.787 114.256 119.603C115.615 117.25 108.457 112.804 107.37 114.686ZM201.276 101.457C186.385 108.231 169.334 108.425 154.773 101.587C152.891 100.5 148.544 108.029 151.268 109.288C168.181 117.484 188.029 117.337 204.948 109.224C207.347 107.785 203.403 100.489 201.276 101.457Z" fill="#917524"/>
<path d="M190.741 212.071L131.364 227.981C125.797 229.473 121.819 214.628 127.386 213.137L186.764 197.227C192.33 195.735 196.308 210.58 190.741 212.071Z" fill="#664E27"/>
</svg>
