<svg width="172" height="172" viewBox="0 0 172 172" fill="none" xmlns="http://www.w3.org/2000/svg">
<path d="M67.6664 153.464C105.038 163.477 143.45 141.3 153.464 103.929C163.477 66.5576 141.3 28.1447 103.929 18.1311C66.5576 8.11759 28.1447 30.2953 18.1312 67.6664C8.11762 105.037 30.2953 143.45 67.6664 153.464Z" fill="#FFDD67"/>
<path d="M73.3122 73.7491C74.7172 81.1363 68.4211 88.394 59.4992 90.1131C50.6378 91.6067 42.22 86.9337 40.8149 79.5465C40.1588 74.7774 72.656 68.9801 73.3122 73.7491ZM102.634 81.606C97.7238 87.3009 99.5476 96.7343 106.415 102.684C113.342 108.408 122.969 108.57 127.879 102.875C130.832 99.0732 105.587 77.8039 102.634 81.606Z" fill="#664E27"/>
<path d="M72.1943 52.6592C64.1099 58.4707 47.6357 61.3089 37.9369 58.7101C36.5835 58.3475 35.0284 63.2493 36.6073 63.6723C47.6594 66.6338 65.6682 63.4815 75.1826 56.8444C76.6125 56.0188 73.3383 51.9987 72.1943 52.6592ZM114.147 63.9005C118.243 72.9756 131.091 83.6707 140.79 86.2695C142.143 86.6321 141.039 91.6547 139.46 91.2317C128.408 88.2703 114.388 76.5359 109.467 66.0309C108.641 64.6009 113.487 62.7566 114.147 63.9005Z" fill="#917524"/>
<path d="M96.4921 123.475C85.8231 114.572 71.3876 110.704 57.6968 113.08C54.4019 113.647 55.8351 122.734 59.4159 122.002C68.5633 120.343 80.8803 122.193 90.768 130.402C93.3375 132.541 99.2268 125.9 96.4921 123.475Z" fill="#664E27"/>
</svg>
