<svg width="215" height="222" viewBox="0 0 215 222" fill="none" xmlns="http://www.w3.org/2000/svg">
<path d="M23.6147 88.1311C10.5479 136.897 37.3202 186.262 83.5526 198.65C129.785 211.038 177.653 181.673 190.72 132.907C203.787 84.1409 177.014 34.7758 130.782 22.3878C84.5495 9.99991 36.6814 39.3652 23.6147 88.1311Z" fill="#FFDD67"/>
<path d="M146.485 138.686C139.716 163.951 172.301 172.682 179.071 147.418C184.03 128.91 172.678 106.662 172.678 106.662C172.678 106.662 151.444 120.179 146.485 138.686Z" fill="#65B1EF"/>
<path d="M118.973 138.871C126.664 140.932 134.661 136.026 136.834 127.914C139.008 119.802 134.535 111.555 126.845 109.494C119.154 107.433 111.157 112.339 108.983 120.451C106.81 128.564 111.282 136.81 118.973 138.871Z" fill="#664E27"/>
<path d="M54.9161 121.707C62.6069 123.768 70.6036 118.862 72.7773 110.75C74.9509 102.638 70.4784 94.3909 62.7876 92.3302C55.0968 90.2694 47.1001 95.1751 44.9264 103.287C42.7527 111.4 47.2253 119.646 54.9161 121.707Z" fill="#664E27"/>
<path d="M84.9418 66.4654C73.9042 72.0091 60.9838 72.3255 49.9161 66.841C48.3238 66.0995 45.2782 71.8955 47.0704 73.0054C59.7303 79.2314 74.7578 78.8499 87.5028 72.5042C89.2889 71.4085 86.3707 65.5888 84.9418 66.4654ZM150.815 93.5619C138.567 92.484 127.457 86.0436 120.67 75.7238C119.87 74.2502 114.155 77.7565 115.432 79.6731C123.218 91.8349 136.12 99.3852 150.197 100.323C152.304 100.258 152.565 93.7159 150.815 93.5619Z" fill="#917524"/>
<path d="M112.113 160.018C97.14 151.283 79.0066 149.888 62.6833 156.219C58.6328 157.968 62.5983 168.791 66.5701 167.336C77.2929 162.968 92.9561 162.442 106.615 170.51C109.999 172.361 115.897 162.606 112.113 160.018Z" fill="#664E27"/>
</svg>
