<svg width="243" height="243" viewBox="0 0 243 243" fill="none" xmlns="http://www.w3.org/2000/svg">
<path d="M216.899 95.6518C231.063 148.514 199.825 202.62 146.963 216.784C94.1008 230.949 39.9949 199.711 25.8305 146.848C11.666 93.9861 42.9041 39.8802 95.7664 25.7158C148.629 11.5514 202.735 42.7895 216.899 95.6518Z" fill="#FFDD67"/>
<path d="M200.221 35.9543C196.324 27.7828 189.671 22.0569 181.112 21.9609C171.917 22.0357 165.127 27.268 159.851 36.8733C152.639 26.5184 143.966 19.6269 132.581 17.8991C121.197 16.1713 111.859 22.0863 107.624 31.7541C103.155 41.8256 104.106 55.5646 115.634 70.5651C126.588 84.6956 164.736 108.605 165.947 109.304C167.051 108.326 194.623 78.7528 199.854 66.4293C205.17 54.4242 204.117 44.1257 200.221 35.9543ZM88.5169 36.8737C80.0147 30.6191 68.9711 30.1651 59.9754 37.3539C50.9797 44.5426 46.9146 54.8473 45.8465 67.4206C36.2413 62.1442 27.6599 60.6891 19.7444 65.5406C12.699 69.8176 9.48104 78.1887 10.1926 87.2134C10.8189 95.9197 15.4601 105.598 25.748 113.422C36.6728 121.075 75.3377 132.9 76.7821 133.196C77.4815 131.985 98.5643 92.2044 100.985 74.4901C103.469 55.7352 97.5081 43.6799 88.5169 36.8737Z" fill="#F46767"/>
<path d="M180.706 126.17C180.023 123.622 177.578 120.864 173.182 121.018C161.439 121.776 144.686 124.217 123.669 129.848C102.651 135.48 87.0075 142.061 76.3738 146.958C72.1716 149.108 71.7511 152.634 72.4337 155.181C78.6626 178.428 102.725 196.896 139.028 187.169C175.245 177.123 186.849 149.098 180.706 126.17Z" fill="#664E27"/>
<path d="M167.183 130.476C159.836 131.079 144.676 133.093 125.887 138.128C107.099 143.162 92.9621 148.998 86.2976 152.149C82.3284 153.895 82.4366 155.573 83.4377 158.035C84.0975 159.223 84.6094 161.134 85.7583 162.874C86.5887 164.699 87.4816 165.484 90.5807 164.312C96.4606 162.054 163.653 144.05 169.874 143.066C173.144 142.531 173.206 141.49 173.331 139.409C173.138 137.413 173.03 135.735 172.921 134.058C172.239 131.51 171.494 130.003 167.183 130.476Z" fill="white"/>
</svg>
