<svg width="310" height="310" viewBox="0 0 310 310" fill="none" xmlns="http://www.w3.org/2000/svg">
<path d="M126.852 260.731C189.793 277.596 254.487 240.245 271.352 177.304C288.217 114.364 250.866 49.6692 187.925 32.8044C124.985 15.9396 60.29 53.2912 43.4252 116.231C26.5604 179.172 63.912 243.867 126.852 260.731Z" fill="#FFDD67"/>
<path opacity="0.8" d="M270.056 149.725C277.154 137.431 269.184 119.542 252.254 109.768C235.325 99.9941 215.847 102.037 208.749 114.331C201.652 126.625 209.622 144.515 226.551 154.288C243.481 164.062 262.958 162.019 270.056 149.725Z" fill="#FF717F"/>
<path opacity="0.8" d="M87.9812 142.032C106.351 135.347 117.308 119.115 112.454 105.775C107.6 92.4345 88.773 87.039 70.4031 93.7232C52.0333 100.408 41.0765 116.64 45.9306 129.98C50.7846 143.32 69.6113 148.716 87.9812 142.032Z" fill="#FF717F"/>
<path d="M148.686 92.9604C143.2 72.7324 133.767 62.3525 123.046 61.6611C112.435 60.5627 100.943 69.2618 92.343 88.3329C91.3906 90.259 94.6974 94.1986 96.9798 92.1928C104.452 85.4703 112.869 83.3632 121.336 84.3234C129.913 84.8765 137.617 88.6857 143.823 96.456C145.531 98.2223 149.471 94.9156 148.686 92.9604ZM231.871 99.9814C226.276 80.1604 216.951 69.3735 206.231 68.6821C195.619 67.5837 184.018 76.6898 175.527 95.354C174.575 97.28 177.882 101.22 180.164 99.2138C187.637 92.4913 196.053 90.3842 204.521 91.3444C213.097 91.8975 220.801 95.7067 227.008 103.477C228.309 105.134 232.139 102.235 231.871 99.9814ZM205.57 144.41C173.058 163.181 138.97 160.155 110.146 135.854C106.621 132.729 102.87 136.958 105.145 141.494C113.052 157.572 130.785 172.793 154.668 174.83C178.551 176.868 198.787 164.84 209.255 150.196C212.271 147.078 209.59 142.433 205.57 144.41Z" fill="#664E27"/>
<path d="M119.53 209.911C119.53 209.911 127.511 209.432 127.279 198.9C127.157 187.962 99.1953 191.375 87.8866 183.11C87.8866 183.11 98.9344 182.581 97.9685 173.161C96.7845 164.555 69.8711 154.29 36.9302 168.148C3.98926 182.006 8.40376 235.537 40.5499 250.694C63.0661 261.089 98.9922 270.28 106.196 261.304C112.04 254.145 101.407 248.242 101.407 248.242C101.407 248.242 115.653 252.059 118.597 241.07C120.342 234.558 115.051 233.14 115.051 233.14C115.051 233.14 127.291 234.675 130.235 223.685C133.151 214.433 119.53 209.911 119.53 209.911Z" fill="white"/>
<path d="M124.305 211.627C134.895 207.921 131.088 191.196 119.663 189.88C109.865 189 93.5848 184.637 93.5848 184.637C93.5848 184.637 99.4212 184.02 100.054 176.774C100.687 169.527 93.6453 156.734 50.3188 162.138C34.0305 164.317 21.3974 174.019 15.7342 188.643C9.74381 204.487 11.9443 225.58 21.4574 237.29C31.8644 250.548 60.8635 264.425 91.6953 266.579C112.213 268.151 113.559 254.988 105.964 250.772C120.05 251.929 124.325 240.86 118.685 235.859C135.053 235.01 136 215.197 124.305 211.627ZM108.161 229.549C100.21 228.291 79.0158 224.357 79.0158 224.357C79.0158 224.357 92.4978 231.023 108.212 232.616C122.188 234.18 117.775 247.393 98.3985 244.819C89.117 243.641 74.7625 240.231 74.7625 240.231C74.7625 240.231 87.2416 245.755 94.3789 246.795C112.942 249.152 107.308 262.038 89.966 260.009C59.1635 256.118 36.2403 245.613 26.7272 233.903C13.3114 217.221 14.449 173.903 51.0452 167.568C67.5516 164.575 93.2012 164.904 94.6832 174.026C96.4046 187.138 74.0988 182.47 74.0988 182.47C74.0988 182.47 91.353 189.71 117.758 193.732C124.896 194.772 127.896 204.737 118.04 207.331C109.515 209.845 84.2506 204.82 84.2506 204.82C84.2506 204.82 97.573 208.826 116.732 212.215C132.118 215.029 128.759 232.451 108.161 229.549Z" fill="#CCCFD4"/>
<path d="M158.603 220.381C158.603 220.381 151.932 215.976 157.398 206.971C162.974 197.559 185.482 214.496 199.408 212.993C199.408 212.993 190.105 207.01 195.652 199.335C200.98 192.474 229.42 197.041 251.019 225.513C272.618 253.985 241.622 298.027 206.72 294.783C182.023 292.528 146.315 282.523 144.564 271.148C143.082 262.027 155.242 262.231 155.242 262.231C155.242 262.231 140.997 258.414 143.941 247.425C145.686 240.913 150.977 242.33 150.977 242.33C150.977 242.33 139.61 237.54 142.555 226.55C144.547 217.487 158.603 220.381 158.603 220.381Z" fill="white"/>
<path d="M146.471 242.868C139.493 244.488 137.661 256.211 150.031 262.143C141.345 261.997 135.929 274.069 154.484 282.967C182.669 296.627 214.206 299.406 229.957 292.72C243.644 287.227 256.503 270.169 259.237 253.453C261.644 237.957 255.554 223.238 242.538 213.207C207.311 186.755 195.332 194.015 192.148 201.014C189.073 207.606 193.819 211.059 193.819 211.059C193.819 211.059 177.538 206.696 168.613 202.56C158.169 197.58 146.401 210.568 153.719 219.072C141.698 216.723 132.611 234.355 146.471 242.868ZM159.875 223.775C178.161 230.42 191.702 233.612 191.702 233.612C191.702 233.612 167.31 225.331 161.184 218.891C153.945 211.717 161.527 204.587 168.228 207.255C193.404 217.491 211.669 219.331 211.669 219.331C211.669 219.331 190.127 211.814 198.064 201.726C203.909 194.568 226.287 207.107 239.085 217.953C267.502 242.144 246.53 279.712 226.977 287.56C213.291 293.053 187.67 290.987 159.158 278.549C142.718 271.526 144.282 257.549 161.943 264.899C168.644 267.567 182.214 269.022 182.214 269.022C182.214 269.022 168.077 264.798 159.45 261.177C141.382 253.719 144.167 240.069 157.053 245.703C171.16 251.664 186.467 253.148 186.467 253.148C186.467 253.148 166.037 246.365 158.631 243.072C139.341 235.286 145.143 218.519 159.875 223.775Z" fill="#CCCFD4"/>
</svg>
