<svg width="264" height="264" viewBox="0 0 264 264" fill="none" xmlns="http://www.w3.org/2000/svg">
<path d="M234.25 137.088L233.974 139.472C233.843 140.595 234.047 141.617 234.584 142.538C235.121 143.46 235.944 144.232 237.053 144.855C238.162 145.478 239.543 145.885 241.196 146.077C242.849 146.269 244.286 146.189 245.508 145.837C246.73 145.485 247.708 144.922 248.443 144.148C249.177 143.374 249.609 142.426 249.74 141.303L250.017 138.919L234.25 137.088ZM231.451 132.897L253.702 135.481L252.941 142.029C252.734 143.809 252.095 145.335 251.024 146.606C249.953 147.878 248.535 148.809 246.77 149.398C245.023 150.011 243.016 150.186 240.749 149.923C238.503 149.662 236.589 149.032 235.009 148.032C233.426 147.054 232.259 145.823 231.507 144.34C230.756 142.856 230.484 141.225 230.691 139.445L231.451 132.897Z" fill="white"/>
<path d="M225.686 162.917C226.207 161.495 227.018 160.338 228.118 159.446C229.237 158.562 230.499 158.002 231.903 157.767C233.327 157.539 234.78 157.697 236.263 158.241C237.725 158.777 238.915 159.588 239.835 160.675C240.774 161.77 241.375 163.012 241.637 164.404C241.92 165.803 241.8 167.213 241.279 168.635C240.757 170.057 239.937 171.21 238.817 172.095C237.718 172.987 236.456 173.547 235.032 173.774C233.628 174.009 232.194 173.859 230.732 173.323C229.25 172.779 228.039 171.96 227.1 170.866C226.181 169.779 225.58 168.536 225.297 167.138C225.028 165.766 225.157 164.36 225.686 162.917ZM228.6 163.986C228.299 164.807 228.245 165.605 228.438 166.381C228.624 167.176 229.021 167.889 229.63 168.522C230.231 169.174 231.003 169.673 231.944 170.018C232.885 170.363 233.786 170.478 234.647 170.361C235.52 170.273 236.285 169.985 236.94 169.498C237.589 169.032 238.063 168.388 238.365 167.566C238.666 166.745 238.713 165.933 238.508 165.131C238.315 164.356 237.918 163.642 237.316 162.99C236.727 162.365 235.972 161.883 235.051 161.546C234.109 161.2 233.202 161.072 232.329 161.161C231.448 161.27 230.684 161.557 230.035 162.024C229.38 162.511 228.901 163.165 228.6 163.986Z" fill="white"/>
<path d="M219.185 179.608L234.242 185.928L232.59 188.403L222.422 183.808L230.138 192.076L228.61 194.365L217.98 190.461L226.14 198.064L224.576 200.406L212.949 188.949L214.619 186.448L225.453 190.564L217.479 182.163L219.185 179.608Z" fill="white"/>
<path d="M206.642 197.776L217.559 209.517L214.91 211.979L213.276 210.221C213.576 212.361 212.976 214.128 211.476 215.522C210.663 216.278 209.786 216.759 208.842 216.966C207.913 217.189 206.979 217.14 206.04 216.819C205.099 216.528 204.244 215.969 203.474 215.141L196.283 207.407L198.955 204.923L205.449 211.907C206.248 212.766 207.114 213.228 208.047 213.292C208.995 213.372 209.86 213.048 210.641 212.322C211.141 211.857 211.5 211.319 211.719 210.708C211.937 210.097 211.999 209.443 211.903 208.745L203.993 200.238L206.642 197.776Z" fill="white"/>
<path d="M179.627 218.548C181.297 217.603 182.804 217.276 184.147 217.57C185.472 217.875 186.576 218.806 187.458 220.366L194.994 233.677L200.007 230.839L201.41 233.317L193.251 237.936L184.501 222.481C184.028 221.646 183.491 221.153 182.891 221.003C182.273 220.862 181.546 221.029 180.71 221.502C180.265 221.754 179.846 222.053 179.453 222.398C179.06 222.743 178.652 223.17 178.229 223.679L176.731 221.034C177.064 220.625 177.49 220.187 178.011 219.721C178.531 219.255 179.07 218.864 179.627 218.548Z" fill="white"/>
<path d="M161.724 226.364C163.181 225.951 164.594 225.928 165.961 226.295C167.335 226.682 168.529 227.374 169.543 228.373C170.564 229.392 171.289 230.661 171.719 232.18C172.144 233.679 172.186 235.119 171.846 236.501C171.511 237.904 170.858 239.12 169.886 240.15C168.919 241.199 167.707 241.931 166.25 242.343C164.793 242.756 163.377 242.769 162.004 242.382C160.636 242.016 159.442 241.323 158.422 240.304C157.407 239.305 156.688 238.056 156.263 236.558C155.833 235.039 155.785 233.578 156.119 232.175C156.46 230.793 157.113 229.577 158.079 228.527C159.031 227.504 160.246 226.783 161.724 226.364ZM162.57 229.351C161.728 229.589 161.05 230.014 160.536 230.625C160.001 231.242 159.657 231.983 159.502 232.847C159.328 233.717 159.377 234.634 159.65 235.599C159.923 236.563 160.359 237.36 160.959 237.989C161.543 238.643 162.225 239.093 163.004 239.338C163.762 239.589 164.562 239.595 165.404 239.357C166.246 239.119 166.931 238.681 167.46 238.043C167.974 237.432 168.318 236.691 168.493 235.821C168.653 234.978 168.6 234.084 168.332 233.14C168.059 232.175 167.63 231.365 167.046 230.71C166.441 230.061 165.759 229.611 165 229.361C164.222 229.116 163.411 229.112 162.57 229.351Z" fill="white"/>
<path d="M140.684 230.73C141.813 230.682 142.824 230.842 143.715 231.21C144.607 231.599 145.313 232.145 145.834 232.849C146.334 233.554 146.604 234.386 146.645 235.345C146.687 236.325 146.477 237.178 146.017 237.902C145.535 238.627 144.844 239.201 143.944 239.623C143.022 240.047 141.922 240.286 140.643 240.34C139.876 240.373 139.127 240.319 138.395 240.179C137.664 240.061 136.928 239.836 136.188 239.504L136.256 241.103C136.304 242.233 136.649 243.061 137.29 243.589C137.933 244.139 138.894 244.386 140.172 244.332C140.876 244.302 141.617 244.164 142.397 243.917C143.155 243.671 144.003 243.283 144.942 242.752L146.428 245.315C145.197 245.987 144.033 246.485 142.936 246.809C141.818 247.134 140.705 247.32 139.597 247.367C137.487 247.457 135.834 247.004 134.639 246.008C133.422 245.014 132.773 243.557 132.691 241.639L132.255 231.376L135.836 231.224L135.908 232.918C136.604 232.206 137.339 231.673 138.114 231.319C138.889 230.966 139.746 230.77 140.684 230.73ZM143.26 235.585C143.228 234.839 142.905 234.255 142.289 233.832C141.653 233.432 140.823 233.254 139.8 233.298C139.054 233.329 138.366 233.476 137.737 233.738C137.107 233.999 136.525 234.376 135.991 234.869L136.098 237.394C136.686 237.647 137.291 237.824 137.915 237.926C138.538 238.027 139.202 238.063 139.905 238.033C140.971 237.988 141.803 237.739 142.403 237.287C143.004 236.855 143.29 236.288 143.26 235.585Z" fill="white"/>
<path d="M116.057 229.983C117.376 230.245 118.508 230.84 119.455 231.767C120.381 232.691 121.047 233.824 121.455 235.166C121.837 236.525 121.879 237.958 121.58 239.465C121.276 240.992 120.68 242.298 119.79 243.383C118.9 244.468 117.841 245.258 116.611 245.753C115.378 246.269 114.102 246.397 112.783 246.135C111.925 245.964 111.174 245.641 110.529 245.165C109.863 244.685 109.308 244.085 108.864 243.366L107.174 251.872L103.509 251.763L108.104 228.631L111.557 229.317L111.195 231.138C111.893 230.58 112.654 230.199 113.478 229.993C114.298 229.808 115.158 229.804 116.057 229.983ZM114.63 232.734C113.919 232.592 113.233 232.597 112.572 232.749C111.911 232.9 111.321 233.186 110.803 233.605L109.381 240.761C109.7 241.346 110.146 241.837 110.72 242.234C111.269 242.647 111.888 242.923 112.579 243.06C113.457 243.234 114.275 243.169 115.032 242.862C115.789 242.556 116.433 242.053 116.963 241.354C117.494 240.654 117.861 239.792 118.064 238.767C118.26 237.783 118.248 236.856 118.029 235.986C117.807 235.137 117.404 234.427 116.822 233.854C116.24 233.282 115.509 232.908 114.63 232.734Z" fill="white"/>
<path d="M80.6467 216.98C81.9755 217.832 82.9547 218.992 83.5843 220.46C84.2138 221.929 84.4001 223.594 84.143 225.457C83.8745 227.338 83.0721 229.319 81.736 231.402C80.4 233.485 78.939 235.032 77.3531 236.043C75.7558 237.071 74.1585 237.605 72.5615 237.645C70.9644 237.685 69.5015 237.279 68.1727 236.427C67.0593 235.713 66.2003 234.819 65.5955 233.747C64.9612 232.681 64.6056 231.477 64.5286 230.135C64.4221 228.8 64.6309 227.388 65.155 225.899L68.5995 226.93C68.0281 228.414 67.8916 229.733 68.1901 230.887C68.4707 232.03 69.0689 232.896 69.9847 233.483C70.7569 233.978 71.6184 234.176 72.5694 234.077C73.5024 233.965 74.4858 233.519 75.5194 232.737C76.5235 231.962 77.5094 230.82 78.4769 229.312C79.4444 227.804 80.0769 226.422 80.3743 225.169C80.6422 223.921 80.6321 222.85 80.3441 221.956C80.0381 221.05 79.4991 220.349 78.7269 219.854C77.8111 219.267 76.7753 219.084 75.6193 219.305C74.4454 219.515 73.3034 220.189 72.1932 221.328L69.8198 218.627C70.9428 217.548 72.1392 216.769 73.409 216.291C74.6608 215.801 75.9091 215.613 77.1539 215.728C78.3691 215.848 79.5334 216.265 80.6467 216.98Z" fill="white"/>
<path d="M63.7718 204.865L52.512 225.458L49.8021 222.648L59.2479 205.982L42.2284 214.748L39.6073 212.03L60.5953 201.571L63.7718 204.865Z" fill="white"/>
<path d="M34.2915 176.123C34.6539 176.989 34.6521 177.869 34.2859 178.762C33.9198 179.655 33.2841 180.291 32.3789 180.67C31.4539 181.057 30.5448 181.068 29.6515 180.702C28.7582 180.336 28.1303 179.72 27.7679 178.854C27.3972 177.968 27.3991 177.089 27.7735 176.215C28.1199 175.33 28.7655 174.69 29.7101 174.294C30.635 173.907 31.5441 173.897 32.4374 174.263C33.3028 174.618 33.9208 175.238 34.2915 176.123Z" fill="white"/>
<path d="M29.0499 141.245L28.9943 138.846C28.9681 137.716 28.6252 136.731 27.9657 135.893C27.3061 135.055 26.3841 134.404 25.1997 133.941C24.0153 133.477 22.5914 133.265 20.9278 133.303C19.2642 133.342 17.8516 133.62 16.69 134.138C15.5283 134.655 14.6375 135.348 14.0174 136.216C13.3973 137.084 13.1004 138.083 13.1266 139.214L13.1821 141.613L29.0499 141.245ZM32.4019 145.009L10.0079 145.528L9.8553 138.937C9.8138 137.146 10.2355 135.546 11.1205 134.139C12.0055 132.731 13.2813 131.613 14.9479 130.785C16.5927 129.936 18.5561 129.485 20.8381 129.432C23.0989 129.38 25.0811 129.74 26.7847 130.511C28.4879 131.261 29.814 132.319 30.7632 133.684C31.7124 135.049 32.2078 136.627 32.2493 138.419L32.4019 145.009Z" fill="white"/>
<path d="M33.9962 114.039C33.6728 115.519 33.0269 116.775 32.0586 117.808C31.0695 118.837 29.8954 119.563 28.5363 119.986C27.1563 120.405 25.6952 120.446 24.153 120.109C22.6315 119.777 21.3416 119.134 20.2831 118.182C19.2038 117.226 18.4397 116.076 17.9908 114.733C17.521 113.386 17.4478 111.972 17.7713 110.493C18.0947 109.013 18.751 107.759 19.7401 106.73C20.7084 105.697 21.8825 104.971 23.2625 104.552C24.6216 104.129 26.0618 104.083 27.5833 104.416C29.1255 104.753 30.4363 105.4 31.5156 106.356C32.5741 107.308 33.3382 108.458 33.808 109.805C34.2615 111.127 34.3242 112.538 33.9962 114.039ZM30.9638 113.376C31.1506 112.522 31.0957 111.724 30.7993 110.982C30.5074 110.219 30.0169 109.566 29.3278 109.022C28.6432 108.458 27.8111 108.069 26.8316 107.854C25.8521 107.64 24.9439 107.649 24.107 107.881C23.2539 108.088 22.5356 108.477 21.9522 109.048C21.3733 109.598 20.9905 110.301 20.8037 111.155C20.6169 112.01 20.6799 112.821 20.9926 113.588C21.2891 114.33 21.7796 114.983 22.4641 115.547C23.1324 116.086 23.9459 116.461 24.9046 116.67C25.8842 116.884 26.8005 116.888 27.6536 116.682C28.5113 116.454 29.2296 116.065 29.8085 115.515C30.3919 114.944 30.777 114.231 30.9638 113.376Z" fill="white"/>
<path d="M38.0877 96.7467L22.3111 92.5325L23.6116 89.8557L34.31 93.0257L25.5415 85.8837L26.7441 83.4084L37.806 85.83L28.6879 79.4076L29.9186 76.8747L42.9962 86.644L41.6816 89.3496L30.3886 86.7445L39.4302 93.9836L38.0877 96.7467Z" fill="white"/>
<path d="M47.9375 77.1084L35.5447 66.9377L37.8387 64.1425L39.6939 65.6651C39.1101 63.5853 39.4679 61.7539 40.7671 60.1707C41.4709 59.3132 42.2763 58.7185 43.1834 58.3867C44.0741 58.0413 45.0063 57.9646 45.9802 58.1567C46.9511 58.3188 47.8735 58.7585 48.7476 59.4758L56.9105 66.175L54.5962 68.9949L47.2248 62.9453C46.3178 62.2009 45.3975 61.8596 44.4637 61.9212C43.5135 61.9693 42.7001 62.4057 42.0234 63.2302C41.5903 63.7579 41.3065 64.3391 41.1719 64.9738C41.0374 65.6086 41.0642 66.2653 41.2523 66.944L50.2315 74.3132L47.9375 77.1084Z" fill="white"/>
<path d="M72.1385 52.6308C70.6067 53.7884 69.1558 54.31 67.7858 54.1955C66.4328 54.0682 65.2161 53.2897 64.1356 51.86L54.9135 39.6567L50.3182 43.1295L48.6011 40.8573L56.0813 35.2044L66.789 49.3735C67.3678 50.1394 67.9645 50.5575 68.5792 50.6278C69.2109 50.6852 69.9097 50.4245 70.6756 49.8457C71.084 49.5371 71.4604 49.1858 71.8045 48.792C72.1487 48.3982 72.4968 47.9212 72.8489 47.361L74.6818 49.7863C74.4061 50.2354 74.0409 50.7252 73.5863 51.2559C73.1317 51.7867 72.6491 52.245 72.1385 52.6308Z" fill="white"/>
<path d="M88.8183 42.4552C87.43 43.0608 86.0336 43.2743 84.629 43.0957C83.2159 42.8975 81.9393 42.3721 80.7993 41.5195C79.6507 40.6473 78.7609 39.4877 78.1297 38.0407C77.507 36.6133 77.2709 35.1918 77.4214 33.7762C77.5635 32.341 78.0467 31.0479 78.8713 29.8969C79.6873 28.7263 80.7895 27.8382 82.1778 27.2326C83.5661 26.6269 84.9668 26.4232 86.38 26.6214C87.7845 26.8 89.0611 27.3254 90.2096 28.1976C91.3497 29.0503 92.231 30.1903 92.8537 31.6177C93.4849 33.0647 93.7295 34.5058 93.5875 35.9409C93.4369 37.3565 92.9537 38.6496 92.1376 39.8202C91.3326 40.9627 90.2262 41.8411 88.8183 42.4552ZM87.5772 39.6101C88.3789 39.2604 88.9933 38.748 89.4204 38.073C89.8669 37.3894 90.1084 36.6091 90.1448 35.732C90.2007 34.8465 90.0282 33.9442 89.6273 33.0252C89.2264 32.1061 88.6866 31.3757 88.008 30.8338C87.3405 30.2638 86.6043 29.91 85.7994 29.7724C85.0141 29.6262 84.2206 29.7279 83.4189 30.0776C82.6172 30.4274 81.9973 30.9538 81.5592 31.6569C81.1322 32.332 80.8907 33.1123 80.8348 33.9979C80.7899 34.8553 80.9637 35.7338 81.356 36.6333C81.7569 37.5523 82.2912 38.2968 82.9588 38.8668C83.6459 39.4282 84.3821 39.782 85.1674 39.9282C85.9722 40.0659 86.7755 39.9599 87.5772 39.6101Z" fill="white"/>
<path d="M108.447 35.3795C107.334 35.5786 106.312 35.5556 105.379 35.3106C104.443 35.0446 103.67 34.5978 103.059 33.9702C102.469 33.3389 102.09 32.5507 101.921 31.6057C101.748 30.6397 101.841 29.767 102.2 28.9876C102.58 28.2044 103.188 27.5431 104.024 27.0036C104.88 26.4603 105.938 26.076 107.198 25.8506C107.954 25.7154 108.704 25.6679 109.448 25.7082C110.189 25.7275 110.948 25.8517 111.725 26.081L111.444 24.506C111.245 23.393 110.792 22.618 110.085 22.1809C109.375 21.7228 108.389 21.6065 107.129 21.8319C106.436 21.9558 105.72 22.1923 104.981 22.5413C104.262 22.8865 103.474 23.3852 102.615 24.0372L100.799 21.6965C101.929 20.8658 103.015 20.2164 104.059 19.748C105.123 19.276 106.201 18.9422 107.293 18.7469C109.372 18.375 111.07 18.6022 112.388 19.4283C113.727 20.2508 114.566 21.607 114.904 23.497L116.713 33.6085L113.185 34.2395L112.886 32.57C112.292 33.3697 111.635 33.9966 110.914 34.4506C110.194 34.9046 109.371 35.2142 108.447 35.3795ZM105.243 30.9139C105.375 31.6489 105.774 32.1843 106.441 32.5202C107.125 32.8312 107.971 32.8966 108.979 32.7163C109.714 32.5848 110.376 32.3473 110.964 32.0036C111.553 31.6599 112.079 31.2082 112.542 30.6485L112.097 28.16C111.481 27.9884 110.858 27.8941 110.226 27.8771C109.595 27.86 108.932 27.9134 108.239 28.0374C107.189 28.2252 106.398 28.5836 105.864 29.1125C105.326 29.6205 105.119 30.2209 105.243 30.9139Z" fill="white"/>
<path d="M133.242 32.6976C131.901 32.6147 130.699 32.1771 129.636 31.3847C128.595 30.5936 127.783 29.5602 127.199 28.2844C126.638 26.9886 126.405 25.5742 126.499 24.0411C126.595 22.4868 127.012 21.1125 127.748 19.9183C128.485 18.7242 129.429 17.7993 130.581 17.1438C131.734 16.467 132.981 16.17 134.323 16.253C135.196 16.3069 135.984 16.5266 136.687 16.912C137.411 17.2988 138.041 17.8187 138.578 18.4717L139.113 9.81622L142.76 9.43245L141.305 32.9715L137.791 32.7544L137.906 30.9019C137.289 31.5477 136.586 32.028 135.797 32.3426C135.009 32.6359 134.158 32.7542 133.242 32.6976ZM134.288 29.7806C135.012 29.8253 135.691 29.7284 136.326 29.4898C136.961 29.2511 137.507 28.8894 137.964 28.4047L138.414 21.1226C138.02 20.5853 137.512 20.1585 136.89 19.8422C136.291 19.5059 135.64 19.3161 134.938 19.2726C134.043 19.2174 133.242 19.3922 132.533 19.7973C131.824 20.2023 131.253 20.7869 130.821 21.551C130.389 22.3152 130.141 23.2189 130.077 24.2623C130.015 25.263 130.15 26.1798 130.484 27.0126C130.818 27.8241 131.312 28.4745 131.966 28.9638C132.62 29.453 133.394 29.7253 134.288 29.7806Z" fill="white"/>
<path d="M169.985 40.5983C168.552 39.9349 167.424 38.9188 166.601 37.55C165.777 36.1811 165.366 34.5565 165.367 32.6761C165.376 30.7764 165.901 28.7038 166.941 26.4582C167.981 24.2126 169.218 22.4814 170.651 21.2644C172.094 20.0281 173.603 19.2813 175.18 19.024C176.757 18.7668 178.261 18.9699 179.694 19.6333C180.894 20.1891 181.867 20.9569 182.612 21.9368C183.386 22.9063 183.902 24.0505 184.161 25.3695C184.448 26.6781 184.434 28.1054 184.117 29.6516L180.564 29.0995C180.929 27.5519 180.884 26.2265 180.431 25.1233C179.997 24.0291 179.287 23.2534 178.3 22.7962C177.467 22.4107 176.587 22.3321 175.658 22.5604C174.749 22.7976 173.836 23.3738 172.918 24.289C172.029 25.1938 171.208 26.4592 170.455 28.0853C169.702 29.7114 169.263 31.1658 169.139 32.4485C169.044 33.7208 169.2 34.7804 169.607 35.6273C170.033 36.4831 170.663 37.1037 171.495 37.4892C172.483 37.9464 173.534 37.9865 174.649 37.6094C175.783 37.2414 176.823 36.418 177.767 35.1393L180.487 37.4918C179.521 38.7138 178.442 39.6481 177.249 40.2948C176.076 40.9503 174.865 41.3064 173.616 41.3629C172.395 41.409 171.185 41.1541 169.985 40.5983Z" fill="white"/>
<path d="M188.428 50.2494L196.824 28.3317L199.886 30.753L192.761 48.5354L208.451 37.5658L211.413 39.9077L192.018 53.0875L188.428 50.2494Z" fill="white"/>
<path d="M221.908 75.1176C221.434 74.3077 221.318 73.4357 221.562 72.5016C221.806 71.5675 222.352 70.8524 223.199 70.3564C224.064 69.8496 224.963 69.7182 225.897 69.9622C226.832 70.2062 227.536 70.7332 228.01 71.5431C228.496 72.3714 228.611 73.2435 228.356 74.1591C228.13 75.0825 227.576 75.8029 226.692 76.3205C225.827 76.8273 224.927 76.9587 223.993 76.7147C223.088 76.4783 222.393 75.946 221.908 75.1176Z" fill="white"/>
</svg>
