<svg width="32" height="25" viewBox="0 0 32 25" fill="none" xmlns="http://www.w3.org/2000/svg">
<path d="M30.6818 0H1.13636C0.507812 0 0 0.507812 0 1.13636V23.8636C0 24.4922 0.507812 25 1.13636 25H30.6818C31.3104 25 31.8182 24.4922 31.8182 23.8636V1.13636C31.8182 0.507812 31.3104 0 30.6818 0ZM27.8125 3.86719L16.6087 12.5852C16.3317 12.8018 15.9446 12.8018 15.6676 12.5852L4.46023 3.86719C4.41798 3.83458 4.38699 3.78958 4.37161 3.73848C4.35623 3.68738 4.35722 3.63274 4.37444 3.58223C4.39167 3.53172 4.42427 3.48787 4.46768 3.45682C4.51108 3.42577 4.56311 3.40908 4.61648 3.40909H27.6562C27.7096 3.40908 27.7616 3.42577 27.805 3.45682C27.8485 3.48787 27.8811 3.53172 27.8983 3.58223C27.9155 3.63274 27.9165 3.68738 27.9011 3.73848C27.8857 3.78958 27.8547 3.83458 27.8125 3.86719Z" fill="#1CD9B7"/>
</svg>
