<svg width="76" height="73" viewBox="0 0 76 73" fill="none" xmlns="http://www.w3.org/2000/svg">
<path d="M38.1847 0C17.5517 0 0.839966 16.7211 0.839966 37.3447C0.839966 53.848 11.5392 67.8429 26.3744 72.7756C28.2417 73.1272 28.9263 71.9726 28.9263 70.9799C28.9263 70.093 28.8952 67.7434 28.8796 64.6313C18.4916 66.8844 16.3007 59.6209 16.3007 59.6209C14.6015 55.3107 12.1461 54.1592 12.1461 54.1592C8.76328 51.8438 12.4075 51.8905 12.4075 51.8905C16.1575 52.1519 18.1275 55.737 18.1275 55.737C21.4574 61.4477 26.8693 59.7983 29.0041 58.8429C29.3402 56.4279 30.3019 54.7816 31.3693 53.848C23.0757 52.9144 14.3588 49.7027 14.3588 35.3935C14.3588 31.3167 15.8059 27.9868 18.2022 25.3726C17.782 24.4297 16.5216 20.633 18.5289 15.4887C18.5289 15.4887 21.6565 14.4866 28.7987 19.3166C31.7863 18.4856 34.9606 18.0749 38.1349 18.0562C41.3092 18.0749 44.4835 18.4856 47.4711 19.3166C54.5666 14.4866 57.6942 15.4887 57.6942 15.4887C59.7015 20.633 58.4411 24.4297 58.0677 25.3726C60.4484 27.9868 61.8955 31.3167 61.8955 35.3935C61.8955 49.7401 53.1662 52.8988 44.857 53.8169C46.164 54.9372 47.3777 57.2277 47.3777 60.7257C47.3777 65.7236 47.3311 69.7382 47.3311 70.9519C47.3311 71.9322 47.9846 73.0992 49.8985 72.7258C64.8395 67.8274 75.5295 53.8231 75.5295 37.3447C75.5295 16.7211 58.8083 0 38.1847 0Z" fill="white"/>
</svg>
