<svg width="68" height="68" viewBox="0 0 68 68" fill="none" xmlns="http://www.w3.org/2000/svg">
<path d="M0 0H68V68H0V0ZM62.4297 51.782C61.9338 48.6795 59.9137 46.0728 53.9212 43.6418C51.8358 42.6643 49.5182 41.9843 48.8297 40.4118C48.5718 39.4768 48.5322 38.9668 48.6993 38.4143C49.1243 36.584 51.2918 36.0343 52.9918 36.5443C54.0968 36.8843 55.1168 37.7343 55.7572 39.0943C58.6868 37.179 58.6868 37.179 60.7297 35.9068C59.9647 34.7168 59.585 34.204 59.0693 33.6968C57.2843 31.6993 54.9072 30.6793 51.0397 30.7672L49.0422 31.0193C47.1268 31.4868 45.3022 32.5068 44.1972 33.8668C40.9672 37.5247 41.8993 43.8997 45.8093 46.5347C49.6768 49.4247 55.3322 50.0593 56.0547 52.7822C56.7347 56.0972 53.5897 57.1597 50.4843 56.7772C48.1865 56.2672 46.9143 55.1168 45.5118 52.9918L40.3268 55.9697C40.9218 57.3297 41.6018 57.9218 42.6218 59.1118C47.5518 64.0872 59.8768 63.8322 62.0897 56.2672C62.1718 56.0122 62.7697 54.2697 62.2993 51.5922L62.4297 51.782ZM36.9778 31.2545H30.6085C30.6085 36.7455 30.583 42.2025 30.583 47.702C30.583 51.1927 30.7615 54.3972 30.192 55.3832C29.257 57.3353 26.8487 57.086 25.755 56.7432C24.633 56.1878 24.0635 55.4228 23.4033 54.3207C23.2248 54.0232 23.0917 53.7653 23.0435 53.7653L17.8727 56.9528C18.7368 58.7378 19.9977 60.2735 21.624 61.251C24.0465 62.696 27.302 63.1635 30.7105 62.3985C32.929 61.7582 34.8415 60.4407 35.8417 58.4007C37.2867 55.7657 36.9807 52.5357 36.9665 48.9203C37.0005 43.1007 36.9665 37.2782 36.9665 31.4132L36.9778 31.2545Z" fill="black"/>
</svg>
