<svg width="73" height="73" viewBox="0 0 73 73" fill="none" xmlns="http://www.w3.org/2000/svg">
<path d="M62.0566 62.0718H51.2703V45.1699C51.2703 41.1394 51.1883 35.9526 45.6494 35.9526C40.0256 35.9526 39.1667 40.3382 39.1667 44.8725V62.0718H28.3803V27.315H38.7418V32.0526H38.8814C40.3291 29.3211 43.8497 26.4379 49.1093 26.4379C60.0384 26.4379 62.0597 33.6308 62.0597 42.9938L62.0566 62.0718ZM16.1978 22.5592C15.3749 22.5596 14.5601 22.3977 13.7999 22.0828C13.0396 21.7679 12.349 21.3062 11.7674 20.724C11.1858 20.1419 10.7248 19.4508 10.4106 18.6903C10.0965 17.9297 9.93539 17.1147 9.93659 16.2919C9.93719 15.0529 10.3052 13.842 10.994 12.8122C11.6828 11.7824 12.6615 10.9799 13.8064 10.5064C14.9513 10.0328 16.2109 9.90934 17.4259 10.1516C18.6409 10.3939 19.7568 10.9911 20.6325 11.8676C21.5081 12.7441 22.1042 13.8605 22.3453 15.0758C22.5864 16.2911 22.4618 17.5505 21.9871 18.6949C21.5124 19.8393 20.709 20.8173 19.6785 21.5051C18.648 22.1929 17.4367 22.5598 16.1978 22.5592ZM21.6062 62.0718H10.7894V27.315H21.6062V62.0718ZM67.4529 0H5.37498C2.40372 0 0 2.34909 0 5.24751V67.5925C0 70.4939 2.40372 72.84 5.37498 72.84H67.4438C70.412 72.84 72.84 70.4939 72.84 67.5925V5.24751C72.84 2.34909 70.412 0 67.4438 0H67.4529Z" fill="white"/>
</svg>
