<svg
  width="19,8"
  height="42,24"
  viewBox="0 0 30 66"
  fill="none"
  xmlns="http://www.w3.org/2000/svg"
>
<path
    d="M28.975 26.111C25.5102 10.8581 17.3378 5.84604 16.4599 3.92845C15.4943 2.57599 14.4491 0 14.4491 0L14.4353 0.134423V0.170087H14.4326C14.4277 0.205615 14.4241 0.241299 14.4216 0.277077V0.318227H14.4161L14.4107 0.389553V0.46088H14.4024C14.3997 0.482827 14.3997 0.51026 14.3942 0.529463V0.587073H14.3887C14.3887 0.606277 14.3887 0.628223 14.3832 0.644683V0.69955H14.3777L14.3722 0.787337V0.792823L14.3476 0.92999V0.951937H14.3421L14.3338 0.984857V1.03149H14.3256V1.09185H14.3119V1.14123H14.2982V1.19884H14.2872V1.25096H14.2762V1.2976H14.2598V1.336H14.2488V1.38538H14.2378V1.42379H14.2241V1.45945H14.2159V1.5006H14.2049L14.2022 1.51158V1.53901H14.1939L14.1912 1.55547V1.57193H14.1857C14.1828 1.58083 14.181 1.59004 14.1802 1.59936L14.1528 1.65697V1.66246C14.1473 1.66817 14.1427 1.67464 14.1391 1.68166V1.70361H14.1281V1.72556H14.1144V1.7475H14.1061V1.77494H14.0897V1.81334H14.0787V1.82432H14.0677V1.84626H14.0568V1.87644H14.0458V1.89839H14.0293V1.92856H14.0184V1.95051H14.0046V1.97246H13.9964V1.99989H13.9827V2.02184H13.9717V2.0383H13.9607V2.06024H13.9443V2.08493H13.9333V2.10139H13.9196V2.12334H13.9086V2.15352H13.8949V2.16449H13.8867V2.18644H13.8702V2.19741H13.8592V2.22484H13.8483V2.23582H13.8373V2.25776H13.8236V2.27422H13.8153L13.8099 2.2852V2.29617H13.8044L13.7989 2.30714L13.7961 2.30989C13.7942 2.31712 13.7904 2.32373 13.7852 2.32909V2.33732L13.7495 2.3867C13.744 2.39219 13.7303 2.4059 13.7248 2.41688V2.42236H13.7221L13.7138 2.43059V2.43882H13.7084L13.7001 2.44705L13.6974 2.4498L13.6892 2.46077V2.47174H13.6809L13.6754 2.47723V2.48272H13.67C13.67 2.4882 13.6645 2.4882 13.6645 2.49095V2.49918H13.6535L13.648 2.50741V2.52387H13.6398V2.53484H13.6288V2.5513H13.6178V2.57325H13.6041V2.5513H13.5904V2.56227H13.5794V2.57873H13.5657V2.60068H13.552V2.61165H13.541V2.62811H13.53V2.63909H13.5191V2.66103H13.5026V2.67201H13.4916V2.68847H13.4779V2.69944H13.4669V2.71316H13.4532V2.74059H13.4477V2.75156H13.4313V2.76528H13.4203V2.77077H13.4093V2.78174H13.3956V2.80917H13.3846V2.82015H13.3709V2.83112H13.36V2.84758H13.3462V2.85855H13.3325V2.86953H13.3215V2.8805H13.3106V2.90793H13.2996V2.92165H13.2831V2.93262H13.2722V2.9436H13.2585V2.96006H13.2475V2.97103H13.2338V2.99023H13.2228V3.00121H13.2063V3.01767H13.2008V3.02864H13.1899V3.03961H13.1762V3.05059H13.1652V3.06705H13.1515V3.07802H13.1432L13.1405 3.08351V3.08899H13.135L13.124 3.09997L13.1131 3.1082V3.12466H13.1021V3.13837H13.0911V3.14935H13.0801V3.16032H13.0719L13.0637 3.16855V3.17678H13.0582L13.0527 3.18227V3.1905H13.0472C13.0335 3.20696 13.028 3.21793 13.0088 3.23439C12.9588 3.2685 12.912 3.30706 12.8689 3.34961L12.8085 3.39625L12.8058 3.39899C12.7614 3.43515 12.7166 3.47081 12.6714 3.50598V3.50872L12.4684 3.67881L12.4629 3.67607C12.3065 3.805 12.1419 3.9504 11.9526 4.11226V4.115H11.9499C11.4863 4.52101 10.9348 5.04225 10.3176 5.67321L10.2764 5.71436L10.2655 5.72534C6.53454 9.58521 0.65558 17.6287 0.0355864 30.6266C-0.0192803 31.702 -0.00830684 32.7472 0.0520465 33.7649V33.7896C0.35107 38.9114 1.95866 43.2843 3.96952 46.8369C4.77058 48.2525 5.63473 49.5419 6.50985 50.6941C9.53301 54.6856 12.6193 57.0531 13.4066 57.6265C14.6164 60.4329 14.5039 65.2502 14.5039 65.2502L16.2706 65.84C16.2706 65.84 15.9113 61.1736 16.416 58.9213C16.5724 58.2163 16.9427 57.6155 17.3735 57.1052C18.1377 56.5606 18.8679 55.9697 19.5599 55.3358C19.6093 55.2836 19.6367 55.237 19.6806 55.1876C23.8532 51.2976 31.647 41.7179 28.975 26.111Z"
    fill="black"
  />
</svg>
