<svg width="66" height="66" viewBox="0 0 66 66" fill="none" xmlns="http://www.w3.org/2000/svg">
<g clip-path="url(#clip0_30_77)">
<path d="M66.1939 64.2269L64.8003 62.8991C64.1117 61.991 63.3792 61.1872 62.5809 60.4548L62.5672 60.4438C61.7478 59.6994 60.8965 58.9917 60.0131 58.3205C59.3054 57.834 58.3324 57.2478 57.0942 56.562C56.0765 56.1038 55.2809 55.3001 54.8502 54.3015L54.8392 54.274L54.7075 54.2082C55.2891 54.1506 55.8213 54.0436 56.3316 53.8927L56.2685 53.9092L57.8322 53.4785C58.4796 53.2755 59.2285 53.1438 60.0049 53.1136H60.0214C60.8389 53.0807 61.6098 52.949 62.345 52.7323L62.2764 52.7488C62.6312 52.661 62.9961 52.5613 63.371 52.4497C63.7459 52.3382 64.0669 52.2385 64.3339 52.1507V51.6871C64.0687 51.2902 63.7477 50.8366 63.371 50.3264C63.0116 49.8381 62.6083 49.4129 62.1557 49.0425L62.142 49.0315C60.9916 48.0147 59.8001 47.0307 58.5674 46.0797C57.481 45.232 56.2493 44.3679 54.9709 43.5668L54.7843 43.4571C54.1095 43.0127 53.3359 42.6012 52.5211 42.2637L52.4278 42.2308C51.6085 41.898 50.801 41.5331 50.0055 41.1362C49.7394 41.0045 49.4294 40.8893 49.1084 40.8098L49.0782 40.8043C48.7572 40.7384 48.4829 40.5738 48.2826 40.3407L48.2799 40.3379C47.9013 39.8386 47.5694 39.2708 47.306 38.6672L47.2841 38.6124C47.0189 37.9924 46.7318 37.3971 46.4227 36.8264C45.7588 35.5426 45.1168 34.2377 44.4968 32.9117C43.8769 31.5858 43.2816 30.258 42.7109 28.9284C42.3141 28.0432 41.9492 27.1589 41.6163 26.2756C41.2487 25.3044 40.8345 24.4732 40.3517 23.6914L40.3873 23.7545C39.2022 21.7354 38.0198 20.0126 36.736 18.3748L36.8128 18.479C35.5426 16.8769 34.2258 15.4449 32.8102 14.1171L32.7883 14.0979C31.3919 12.7866 29.8886 11.5357 28.3112 10.378L28.1768 10.282C26.5381 9.09135 24.7458 7.91903 22.7998 6.765C22.018 6.30412 21.1099 5.92829 20.1525 5.68687L20.0812 5.67041L17.0279 4.90776L15.3023 4.77609C14.728 4.73219 14.1528 4.71025 13.5767 4.71025C13.1707 4.49626 12.8223 4.24114 12.5151 3.94485C12.2133 3.65681 11.8869 3.38522 11.5467 3.13557L11.5192 3.11637C9.85953 2.14797 7.93096 1.26188 5.91461 0.565069L5.68143 0.493742C5.15197 0.183746 4.51551 0.00268555 3.83791 0.00268555C3.35508 0.00268555 2.89146 0.0959589 2.46899 0.263302L2.49368 0.255072C1.45121 0.669315 0.655644 1.51152 0.312727 2.55947L0.304497 2.58691C0.104234 3.05876 -0.0109863 3.60468 -0.0109863 4.18078C-0.0109863 5.19033 0.345647 6.11483 0.94095 6.83633L0.935464 6.8281C1.93038 8.15404 2.69303 9.19651 3.2234 9.9555C3.62027 10.4877 4.02994 11.0409 4.45242 11.6152C4.83923 12.131 5.18214 12.7208 5.45922 13.3435L5.48117 13.4011C5.63479 13.7276 5.76922 14.1171 5.86798 14.5177L5.87621 14.5616C5.96399 14.9383 6.07464 15.348 6.20815 15.7906C6.60502 16.8074 6.98086 17.8499 7.33566 18.918C7.72247 20.0839 8.15043 21.0715 8.64697 22.0124L8.59485 21.9027C8.86004 22.3892 9.12614 22.8647 9.39316 23.3292C9.66018 23.7938 9.94731 24.2473 10.2546 24.6899C10.4329 24.9588 10.6578 25.181 10.9157 25.3538L10.9239 25.3593C11.1955 25.5568 11.3738 25.8668 11.3876 26.218C11.0748 26.6789 10.8636 27.233 10.7923 27.8283L10.7895 27.8448C10.6935 28.5388 10.5563 29.1561 10.3698 29.7514L10.3917 29.6691C9.77997 31.4961 9.42882 33.603 9.42882 35.7895C9.42882 36.4972 9.46449 37.194 9.53856 37.8826L9.53033 37.7976C9.69493 40.4257 10.4877 42.8398 11.7579 44.9303L11.7195 44.8617C12.2599 45.671 12.8388 46.376 13.478 47.0207C13.9389 47.5364 14.6082 47.8601 15.3544 47.8601C15.7714 47.8601 16.1665 47.7586 16.5121 47.5776L16.4984 47.5831C17.4586 47.2374 18.1416 46.3595 18.191 45.3143V45.3088C18.3227 44.0085 18.5202 42.8453 18.7918 41.7096L18.7562 41.8934C18.822 41.7206 18.8604 41.523 18.8604 41.3145C18.8604 41.2734 18.8577 41.2322 18.8549 41.1911V41.1966C18.833 40.9972 18.9546 40.8088 19.2198 40.6314V40.7631C19.485 41.3831 19.7611 42.0022 20.0483 42.6204C20.3354 43.2385 20.6335 43.8576 20.9426 44.4776C21.7519 45.7094 22.6105 46.7847 23.5542 47.7751L23.546 47.7669C24.4925 48.7874 25.524 49.7037 26.6378 50.5129L26.6981 50.5541C27.2797 50.9985 27.79 51.4786 28.2508 52.0026L28.2618 52.0135C28.6953 52.5238 29.2137 52.9435 29.7981 53.259L29.8255 53.2727V53.2069H29.9572C29.8502 52.9682 29.6774 52.7762 29.4634 52.6445L29.4579 52.6418C29.2412 52.5211 29.0546 52.4003 28.8791 52.2687L28.8928 52.2769C28.4959 51.88 28.0862 51.4374 27.6638 50.9491C27.2413 50.4608 26.8545 49.9963 26.5033 49.5555C25.5743 48.2716 24.6882 46.9301 23.845 45.531C23.0019 44.1319 22.2054 42.71 21.4556 41.2652C21.1008 40.5574 20.7579 39.8277 20.4268 39.076C20.0958 38.3243 19.7748 37.5946 19.4639 36.8868C19.3295 36.6152 19.2362 36.3025 19.2006 35.9705V35.9568C19.1841 35.6413 19.0031 35.3697 18.7397 35.2298L18.7342 35.2271C18.4023 35.7922 18.0347 36.2805 17.6149 36.7222L17.6177 36.7195C17.1815 37.1776 16.8249 37.718 16.5697 38.3106L16.556 38.3462C16.1692 39.2845 15.8866 40.3736 15.7632 41.5121L15.7577 41.5642C15.626 42.7365 15.4934 43.9417 15.3599 45.1799L15.2282 45.2457L15.1624 45.3116C14.4491 45.1662 13.862 44.7108 13.5438 44.0963L13.5383 44.0826C13.2055 43.4406 12.9074 42.8097 12.644 42.1897C11.9637 40.4422 11.5412 38.4203 11.4836 36.308V36.2833C11.4589 35.9486 11.4479 35.5563 11.4479 35.164C11.4479 33.3369 11.736 31.5757 12.2682 29.9242L12.2353 30.0449C12.3669 29.5584 12.6541 28.7391 13.0967 27.5869C13.5393 26.4347 13.628 25.6382 13.3628 25.1975C13.2256 24.7448 12.9705 24.3635 12.6358 24.0727L12.633 24.0699C12.2984 23.7792 11.9938 23.4746 11.714 23.1509L11.7058 23.14C11.3967 22.6937 11.0986 22.2182 10.8115 21.7134C10.5243 21.2087 10.2701 20.7112 10.0488 20.2211C9.59617 19.1731 9.13254 17.859 8.74848 16.5093L8.68812 16.2652C8.25193 14.7152 7.76636 13.4039 7.19026 12.1419L7.26159 12.3175C6.95708 11.6262 6.60319 11.0281 6.19169 10.4822L6.20815 10.5042C5.7619 9.90795 5.3632 9.34373 5.01206 8.81153C4.56581 8.23726 4.12322 7.68402 3.68428 7.15181C3.23712 6.61138 2.83934 6.00236 2.51562 5.34944L2.49093 5.29457C2.35925 5.02847 2.24403 4.71848 2.16448 4.39751L2.15899 4.36733C2.12881 4.27131 2.11235 4.15883 2.11235 4.04636C2.11235 3.82141 2.17819 3.61017 2.29341 3.4346L2.29067 3.44008C2.32085 3.28645 2.39217 3.15203 2.49093 3.0423C2.59792 2.94628 2.73509 2.87495 2.88323 2.84478H2.88872C3.1219 2.6939 3.40446 2.60337 3.71172 2.60337C3.94216 2.60337 4.16437 2.65549 4.35914 2.74876L4.35091 2.74602C4.9517 2.91611 5.43727 3.08619 5.91187 3.28097L5.81311 3.24531C6.65257 3.60011 7.4271 3.94303 8.13671 4.27406C8.95423 4.66361 9.65103 5.07511 10.3094 5.53325L10.2601 5.50033C10.6149 5.72162 10.9687 5.96486 11.3217 6.23005C11.6747 6.49524 12.0505 6.76134 12.4492 7.02836H13.3792C14.087 7.02836 14.8387 7.0622 15.6342 7.12987C16.438 7.19296 17.1815 7.34385 17.8893 7.57977L17.8234 7.56057C19.143 7.95287 20.276 8.41649 21.3513 8.97338L21.2389 8.92126C22.3234 9.47359 23.3522 10.0597 24.3251 10.6797C25.9409 11.6865 27.3373 12.718 28.6514 13.8455L28.6047 13.8071C29.9764 14.9813 31.2219 16.1856 32.3905 17.4585L32.418 17.4914C33.5592 18.7369 34.6483 20.0894 35.6441 21.5077L35.7292 21.6366C36.6454 22.9315 37.5699 24.4293 38.4012 25.982L38.5164 26.2152C38.7386 26.6377 38.9635 27.1562 39.1583 27.6857L39.1885 27.7762C39.3659 28.2846 39.5643 28.8059 39.7838 29.3399C40.2703 30.4464 40.7915 31.5629 41.3475 32.6895C41.9035 33.8161 42.4247 34.9116 42.9112 35.976L44.3707 39.161C44.8837 40.2748 45.457 41.235 46.1236 42.1211L46.0935 42.0799C46.6504 42.6752 47.3938 43.0922 48.2278 43.2376L48.2497 43.2404C49.2593 43.4927 50.1097 43.7781 50.9327 44.1155L50.8038 44.0688C51.1961 44.2472 51.7008 44.4365 52.2193 44.6038L52.3291 44.634C52.9107 44.8123 53.4154 45.0482 53.879 45.3445L53.8544 45.3308C54.7514 45.8328 55.5113 46.3266 56.2356 46.8643L56.178 46.8232C56.9296 47.3755 57.6813 47.8967 58.433 48.3869C58.7878 48.652 59.3831 49.0389 60.2189 49.5473C61.0547 50.0557 61.4973 50.5312 61.5467 50.9738C61.2339 50.9628 60.8636 50.9546 60.4932 50.9546C59.1435 50.9546 57.8157 51.0424 56.5154 51.2125L56.669 51.196C55.1986 51.3935 53.8653 51.7529 52.6116 52.2659L52.7214 52.2275C52.4114 52.3619 52.041 52.4854 51.6569 52.5814L51.6048 52.5924C51.2153 52.65 50.9135 52.9627 50.8751 53.3523C51.0424 53.5608 51.1769 53.8049 51.2674 54.0683L51.2729 54.0848C51.3662 54.3646 51.4786 54.606 51.6158 54.8309L51.6076 54.8145C51.934 55.3933 52.2852 55.8926 52.6802 56.3535L52.6692 56.3398C53.056 56.8171 53.4922 57.2314 53.9751 57.5852L53.9943 57.599C54.4405 57.9538 54.9051 58.3186 55.3879 58.6936C55.8296 59.0392 56.3288 59.3794 56.8473 59.6866L56.9132 59.7223C57.6923 60.1996 58.5976 60.655 59.5413 61.0364L59.6675 61.0803C60.6935 61.4918 61.5741 61.9691 62.3916 62.537L62.3477 62.5068C62.8799 62.8159 63.4103 63.1588 63.9389 63.5355C64.4674 63.9123 64.9758 64.2772 65.4641 64.6301C65.6644 64.8277 65.84 65.0471 65.9881 65.2858L65.9963 65.2995C66.246 65.5848 66.5917 65.7796 66.9839 65.829H66.9922V65.6973C66.7508 65.5135 66.5724 65.2584 66.4874 64.9648L66.4847 64.9538C66.4161 64.674 66.3146 64.4299 66.1774 64.2049L66.1829 64.2159L66.1939 64.2269ZM15.2337 11.5411C14.8789 11.5411 14.547 11.5521 14.2379 11.5741C13.9224 11.596 13.6289 11.6536 13.3518 11.7469L13.3765 11.7387V11.8045H13.5082C13.6856 12.0697 13.9087 12.3678 14.1775 12.6988C14.4464 13.0299 14.6896 13.3508 14.9073 13.6617L15.9689 15.8509L16.1006 15.7851C16.4106 15.5601 16.6493 15.2584 16.7919 14.9045L16.7974 14.8908C16.9401 14.5094 17.0224 14.065 17.0224 13.6041C17.0224 13.5548 17.0224 13.5054 17.0196 13.456V13.4642C16.8962 13.3435 16.7947 13.2009 16.7233 13.0417L16.7206 13.0335L16.4984 12.5342C16.353 12.3038 16.15 12.1227 15.9113 12.0075L15.9031 12.0048C15.6452 11.8813 15.4257 11.7249 15.2337 11.5411Z" fill="black"/>
</g>
<defs>
<clipPath id="clip0_30_77">
<rect width="65.84" height="65.84" fill="white"/>
</clipPath>
</defs>
</svg>
