<svg width="66" height="66" viewBox="0 0 66 66" fill="none" xmlns="http://www.w3.org/2000/svg">
<path d="M48.8672 61.7275C48.623 61.8564 48.6367 61.9086 48.8809 61.7851C48.9524 61.7544 49.0175 61.7107 49.0729 61.6562C49.0729 61.6123 49.0674 61.6178 48.8672 61.7275ZM49.3555 61.4696C49.2403 61.5601 49.2403 61.5656 49.3802 61.4943C49.457 61.4559 49.5229 61.412 49.5229 61.3983C49.5229 61.3461 49.4899 61.3599 49.3555 61.4696ZM49.6765 61.2748C49.5613 61.3653 49.5613 61.3708 49.7012 61.2995C49.778 61.2611 49.8438 61.2172 49.8438 61.2035C49.8438 61.1514 49.8109 61.1651 49.6765 61.2748ZM49.9975 61.0828C49.8823 61.1733 49.8823 61.1788 50.0222 61.1075C50.099 61.069 50.1648 61.0252 50.1648 61.0114C50.1648 60.9593 50.1319 60.973 49.9975 61.0828ZM50.4419 60.7947C50.217 60.9374 50.1456 61.0334 50.3459 60.9236C50.4886 60.8413 50.719 60.6658 50.6806 60.6603C50.5965 60.6964 50.5164 60.7415 50.4419 60.7947ZM30.7628 0.00978924C30.6202 0.0235067 30.1702 0.0674027 29.7642 0.100325C20.4144 0.942578 11.6544 5.98787 6.10702 13.7437C3.04024 18.0007 1.04683 22.9353 0.296298 28.1279C0.0329219 29.9359 0 30.4708 0 32.9235C0 35.3762 0.0329219 35.9084 0.296298 37.7192C2.08506 50.0813 10.8835 60.4682 22.8149 64.3173C24.9521 65.006 27.2045 65.4751 29.7642 65.7577C30.7628 65.8674 35.0729 65.8674 36.0715 65.7577C40.4913 65.2693 44.2389 64.1747 47.9316 62.2899C48.4968 61.9991 48.6065 61.9223 48.5297 61.8592C46.7259 59.4758 44.9389 57.0798 43.1689 54.6712L37.9041 47.5601L31.3088 37.7987C29.1159 34.5324 26.9018 31.2804 24.6668 28.0428C24.6421 28.0374 24.6147 32.3748 24.6037 37.6698C24.5845 46.9428 24.579 47.3159 24.461 47.5354C24.349 47.7918 24.1484 47.9993 23.8959 48.1197C23.6901 48.224 23.509 48.2432 22.5378 48.2432H21.424L21.1277 48.0566C20.9449 47.9414 20.7962 47.7795 20.6969 47.5875L20.5625 47.2967L20.5762 34.394L20.5954 21.4859L20.7957 21.2362C20.9303 21.0781 21.0919 20.9453 21.2731 20.8439C21.5364 20.715 21.6407 20.7012 22.7546 20.7012C24.0687 20.7012 24.2854 20.7534 24.6284 21.1265C27.2982 25.0997 29.9457 29.0879 32.5708 33.0909C36.8452 39.571 42.6861 48.4188 45.5585 52.7645L50.7711 60.6603L51.0345 60.4874C53.5427 58.819 55.8171 56.8234 57.7972 54.5532C61.9453 49.8061 64.6355 43.9628 65.5449 37.7246C65.8083 35.9167 65.8412 35.3817 65.8412 32.929C65.8412 30.4763 65.8083 29.9441 65.5449 28.1334C63.7561 15.7712 54.9577 5.3843 43.0263 1.53517C40.7965 0.825287 38.5002 0.34452 36.173 0.100325C35.5557 0.0372242 31.3006 -0.0341067 30.7683 0.0180197L30.7628 0.00978924ZM44.2389 19.9221C44.3923 19.9992 44.5289 20.1061 44.6405 20.2366C44.7521 20.3671 44.8367 20.5185 44.8891 20.682C44.9412 20.8494 44.9522 24.4269 44.9412 32.49L44.922 44.0621L42.8809 40.9345L40.8342 37.8069V29.3954C40.8342 23.9578 40.8589 20.9015 40.8973 20.7534C40.9438 20.5824 41.0241 20.4224 41.1334 20.283C41.2428 20.1435 41.3789 20.0273 41.5338 19.9413C41.7972 19.8069 41.8932 19.7931 42.9055 19.7931C43.8575 19.7931 44.0249 19.8069 44.2389 19.9221Z" fill="white"/>
</svg>
