<svg width="86" height="86" viewBox="0 0 86 86" fill="none" xmlns="http://www.w3.org/2000/svg">
<path d="M42.8925 78.8333C62.6833 78.8333 78.7259 62.7907 78.7259 43C78.7259 23.2092 62.6833 7.16666 42.8925 7.16666C23.1018 7.16666 7.0592 23.2092 7.0592 43C7.0592 62.7907 23.1018 78.8333 42.8925 78.8333Z" stroke="white" stroke-width="3" stroke-linecap="round" stroke-linejoin="round"/>
<path d="M38.4133 52.0658V33.9342C38.4133 32.2142 37.6966 31.5333 35.8691 31.5333H31.2108C29.3833 31.5333 28.6666 32.2142 28.6666 33.9342V52.0658C28.6666 53.7858 29.3833 54.4667 31.2108 54.4667H35.8333C37.6966 54.4667 38.4133 53.7858 38.4133 52.0658ZM57.3333 52.0658V33.9342C57.3333 32.2142 56.6166 31.5333 54.7891 31.5333H50.1666C48.3391 31.5333 47.6225 32.2142 47.6225 33.9342V52.0658C47.6225 53.7858 48.3391 54.4667 50.1666 54.4667H54.7891C56.6166 54.4667 57.3333 53.7858 57.3333 52.0658Z" stroke="white" stroke-width="3" stroke-linecap="round" stroke-linejoin="round"/>
</svg>
