<svg width="70" height="66" viewBox="0 0 70 66" fill="none" xmlns="http://www.w3.org/2000/svg">
<path d="M48.1171 45.9483C50.631 45.7313 52.5809 43.5182 52.4536 40.8741C52.3205 38.23 50.1537 36.1066 47.5125 36.1066H47.336C46.0253 36.1533 44.7868 36.7186 43.8927 37.6783C42.9987 38.638 42.5224 39.9134 42.5685 41.2241C42.6553 42.6098 43.2223 43.7381 43.9976 44.5597C40.9658 50.4554 36.4152 54.789 29.5214 58.4312C24.884 60.8555 19.9863 61.7697 15.2188 61.1187C11.2323 60.5575 8.11378 58.7755 6.20445 55.9173C3.34624 51.5808 3.08588 46.9029 5.46675 42.2222C7.2054 38.8404 9.80324 36.3698 11.539 35.1548C11.0152 33.7028 10.6088 32.211 10.324 30.6939C-2.50903 39.8847 -1.20433 52.4516 2.69533 58.3907C5.59983 62.7243 11.539 65.4957 18.0394 65.4957C19.7723 65.4957 21.5948 65.3685 23.371 64.9345C34.6419 62.7677 43.1789 56.007 48.0766 46.038L48.1171 45.9483ZM63.5884 35.1114C56.874 27.2224 46.9889 22.8888 35.718 22.8888H34.2426C33.5107 21.2861 31.8213 20.2881 29.9119 20.2881H29.7818C27.0537 20.2881 24.9274 22.6313 25.0171 25.3593C25.1039 27.9572 27.3141 30.1269 29.9582 30.1269H30.1723C31.1097 30.0901 32.0166 29.7844 32.785 29.2464C33.5534 28.7083 34.1508 27.9605 34.5059 27.0922H36.1115C42.7912 27.0922 49.1152 29.042 54.8808 32.8549C59.2982 35.7594 62.466 39.5723 64.2422 44.1257C65.7986 47.8518 65.7147 51.494 64.1121 54.5316C61.6415 59.2962 57.4786 61.8131 51.9763 61.8131C48.5076 61.8131 45.1287 60.7282 43.393 59.95C42.3544 60.8121 40.6186 62.2441 39.3602 63.112C43.1731 64.8419 47.0323 65.84 50.7583 65.84C59.2115 65.84 65.492 61.0754 67.8786 56.4785C70.4765 51.277 70.2624 42.5231 63.6289 35.0246L63.5884 35.1114ZM18.7742 47.5047C18.8305 48.781 19.3744 49.987 20.2937 50.8741C21.2131 51.7611 22.4378 52.2616 23.7153 52.2722H23.8889C24.5403 52.2575 25.1822 52.1126 25.7768 51.846C26.3713 51.5794 26.9065 51.1965 27.3508 50.7198C27.7951 50.2432 28.1395 49.6824 28.3637 49.0706C28.5879 48.4589 28.6875 47.8084 28.6564 47.1575C28.6564 44.5568 26.4028 42.3929 23.7587 42.3929H23.5822C23.4087 42.3929 23.1512 42.3929 22.9313 42.4768C19.3354 36.4074 17.8166 29.9041 18.3836 22.8888C18.7279 17.6005 20.4637 13.0037 23.5822 9.19081C26.183 5.93917 31.0807 4.3336 34.4191 4.2497C43.7806 4.07323 47.6832 15.7375 47.984 20.3748L52.3176 21.6738C51.3196 7.45795 42.4817 0 34.0286 0C26.0962 0 18.7742 5.76559 15.8234 14.2187C11.7936 25.4895 14.4377 36.3235 19.3788 44.9936C18.9478 45.5577 18.6874 46.5529 18.7742 47.5047Z" fill="black"/>
</svg>
