<svg width="66" height="66" viewBox="0 0 66 66" fill="none" xmlns="http://www.w3.org/2000/svg">
<path d="M0 32.92V65.84H65.84V0H0V32.92ZM53.0588 30.2974C54.7322 30.7144 56.0051 31.4578 57.1765 32.6704C57.7828 33.3178 58.6826 34.4974 58.754 34.7827C58.7759 34.865 55.9119 36.7854 54.1781 37.8635C54.115 37.9046 53.8626 37.633 53.5828 37.2161C52.7323 35.9816 51.8462 35.4493 50.4883 35.3561C48.4912 35.2189 47.2073 36.2641 47.2183 38.0089C47.2001 38.4379 47.2966 38.8641 47.4981 39.2434C47.937 40.1514 48.7545 40.6973 51.3113 41.8029C56.0271 43.833 58.0434 45.169 59.2971 47.0701C60.6962 49.1907 61.0117 52.5787 60.0598 55.0971C59.0173 57.8349 56.4249 59.6949 52.7762 60.3094C51.6487 60.5097 48.974 60.4795 47.7614 60.2601C45.1169 59.7882 42.6095 58.4824 41.0622 56.7678C40.4559 56.1012 39.2736 54.3537 39.3476 54.2302C39.5378 54.0848 39.7396 53.9555 39.9512 53.8434C40.2474 53.6761 41.353 53.0369 42.3982 52.4306L44.2911 51.3332L44.6889 51.9203C45.2431 52.7653 46.4529 53.9257 47.1853 54.3125C49.2867 55.4208 52.17 55.2644 53.591 53.9888C53.8768 53.7481 54.103 53.4445 54.2519 53.1019C54.4009 52.7592 54.4686 52.3867 54.4497 52.0136C54.4497 51.2509 54.3537 50.9163 53.9559 50.3402C53.4456 49.6104 52.4004 48.9959 49.4321 47.7066C46.0359 46.2444 44.5737 45.3363 43.2349 43.8933C42.3994 42.941 41.7823 41.8174 41.4271 40.6013C41.1774 39.6713 41.1143 37.3395 41.3119 36.4013C42.0114 33.1175 44.4886 30.8323 48.0632 30.152C49.2236 29.9325 51.9203 30.0148 53.0588 30.2974ZM37.6029 33.0462L37.6248 35.7429H29.0519V60.0927H22.9891V35.7429H14.4244V33.0983C14.4244 31.6334 14.4546 30.4098 14.4958 30.3824C14.5287 30.3385 19.7438 30.3166 26.0644 30.3275L37.5727 30.3605L37.6029 33.0462Z" fill="black"/>
</svg>
