<svg
  width="68"
  height="77"
  viewBox="0 0 68 77"
  fill="none"
  xmlns="http://www.w3.org/2000/svg"
>
<path
    d="M67.4182 63.9736C67.4297 70.8599 61.9405 76.4524 55.1555 76.4678L53.0302 76.4717C52.2121 76.4756 51.4859 76.4601 50.8475 76.4331C50.2053 76.4022 49.5364 76.3018 48.8368 76.128C48.1373 75.9503 47.369 75.6568 46.5204 75.2474C45.7406 74.865 44.7964 74.3591 43.6879 73.7257C43.5197 73.633 43.3133 73.633 43.1489 73.7295C42.0442 74.3668 41.1038 74.8766 40.3202 75.2628C39.4754 75.6799 38.7071 75.9773 38.0076 76.155C37.308 76.3327 36.6391 76.4369 35.9969 76.4678C35.3585 76.4987 34.6284 76.5142 33.8142 76.518C24.2082 76.5335 19.3956 71.6671 19.3765 61.9189L19.2159 38.9929V15.7192C19.2159 12.7183 16.8192 10.2889 13.8682 10.2889C12.6909 10.2889 11.6282 10.7717 10.856 11.5557C10.0877 12.3359 9.60988 13.4173 9.60988 14.6108V38.989C9.60988 39.2941 9.36524 39.5413 9.06326 39.5413H0.542804C0.244646 39.5413 0 39.2941 0 38.989V12.9963C0 6.11003 5.50064 0.529144 12.2857 0.529144H14.411C15.2252 0.529144 15.9515 0.544597 16.5937 0.571632C17.2359 0.60253 17.9048 0.702946 18.6043 0.88447C19.3039 1.06213 20.0722 1.35952 20.9208 1.76892C21.7006 2.15514 22.6409 2.66108 23.7495 3.29835C23.9177 3.3949 24.1241 3.3949 24.2961 3.29835C25.4008 2.66108 26.3412 2.15514 27.1248 1.76892C27.9696 1.35952 28.7379 1.06213 29.4374 0.88447C30.137 0.706809 30.8059 0.60253 31.4481 0.571632C32.0903 0.540735 32.8166 0.529144 33.6308 0.529144C43.2368 0.529144 48.0418 5.40325 48.0418 15.1553V38.9813C48.0418 39.2864 47.7971 39.5336 47.4951 39.5336L38.9747 32.7515C38.5542 32.4232 38.4433 32.3305 38.4319 32.1992V15.7771C38.4319 12.22 35.0948 9.53195 31.731 10.5284C29.7929 11.1 28.8258 12.6758 28.8258 15.248V38.9851L28.9864 61.2739C28.9902 64.831 32.3349 67.5114 35.6988 66.5111C37.6368 65.9356 38.6001 64.3598 38.5962 61.7837L38.2866 38.5178C38.2866 38.2127 38.6459 37.9462 38.9479 37.9462L47.6136 44.7321C48.0418 45.0565 48.1526 45.1801 48.1603 45.2844L48.2061 61.3048C48.2099 64.3058 50.6105 66.7312 53.5653 66.7235C55.9124 66.7196 57.8122 64.7847 57.8122 62.4017V62.3901L57.7663 38.0119C57.7663 37.7067 58.011 37.4596 58.3091 37.4596L66.8296 37.4441C67.1315 37.4441 67.3762 37.6913 67.3762 37.9964L67.4182 63.9736Z"
    fill="black"
  />
</svg>
