<svg
  width="640"
  height="688"
  viewBox="0 0 320 344"
  fill="none"
  xmlns="http://www.w3.org/2000/svg"
>
<path
    d="M307.641 233.229C299.601 252.641 287.815 270.28 272.958 285.137C258.1 299.994 240.462 311.78 221.05 319.821C201.638 327.862 180.832 332 159.821 332C138.809 332 118.003 327.861 98.5914 319.821C79.1793 311.78 61.541 299.994 46.6836 285.137C31.8263 270.28 20.0408 252.641 12 233.229"
    stroke="#1CD9B7"
    stroke-width="25"
    stroke-linecap="round"
  />
<path
    d="M307.641 110.771C299.601 91.3586 287.815 73.7203 272.958 58.8629C258.1 44.0055 230.462 32.22 221.05 24.1793C201.638 16.1385 180.832 12 159.821 12C138.809 12 118.003 16.1385 98.5914 24.1793C79.1793 32.22 61.541 44.0055 46.6836 58.8629C31.8263 73.7203 20.0408 91.3586 12 110.771"
    stroke="#1CD9B7"
    stroke-width="25"
    stroke-linecap="round"
  />
</svg>
