<svg width="66" height="66" viewBox="0 0 66 66" fill="none" xmlns="http://www.w3.org/2000/svg">
<path d="M64.5945 29.9845L35.8471 1.23991C35.0501 0.445852 33.9709 0 32.8459 0C31.7209 0 30.6417 0.445852 29.8447 1.23991L23.8889 7.20666L31.4605 14.7783C32.3538 14.4756 33.3141 14.4296 34.2322 14.6454C35.1504 14.8613 35.9896 15.3303 36.6545 15.9992C37.3194 16.6681 37.7834 17.5101 37.9937 18.4295C38.204 19.3489 38.1522 20.3089 37.8443 21.2004L45.136 28.4977C46.2152 28.1224 47.3898 28.1248 48.4674 28.5045C49.545 28.8841 50.4617 29.6184 51.0674 30.5872C51.6731 31.556 51.9318 32.7017 51.8012 33.8368C51.6705 34.9718 51.1583 36.0288 50.3484 36.8346C49.8803 37.3035 49.3244 37.6754 48.7124 37.9292C48.1005 38.1829 47.4445 38.3135 46.782 38.3135C46.1196 38.3135 45.4636 38.1829 44.8516 37.9292C44.2397 37.6754 43.6838 37.3035 43.2157 36.8346C42.5143 36.1312 42.0352 35.2371 41.8382 34.2635C41.6411 33.2898 41.7347 32.2798 42.1074 31.3589L35.2792 24.5665V42.4667C35.7621 42.7026 36.2175 43.0236 36.618 43.4214C37.5575 44.3706 38.0845 45.6522 38.0845 46.9877C38.0845 48.3232 37.5575 49.6048 36.618 50.554C36.1482 51.0243 35.5903 51.3973 34.9763 51.6518C34.3622 51.9063 33.704 52.0373 33.0393 52.0373C32.3746 52.0373 31.7164 51.9063 31.1024 51.6518C30.4883 51.3973 29.9304 51.0243 29.4606 50.554C28.9917 50.0866 28.6196 49.5312 28.3657 48.9197C28.1118 48.3082 27.9811 47.6526 27.9811 46.9905C27.9811 46.3283 28.1118 45.6727 28.3657 45.0612C28.6196 44.4497 28.9917 43.8943 29.4606 43.4269C29.9599 42.9331 30.5223 42.56 31.1204 42.3131V24.2373C30.5045 23.9855 29.9447 23.6141 29.4734 23.1446C29.002 22.675 28.6285 22.1167 28.3744 21.5018C28.1203 20.8869 27.9906 20.2278 27.993 19.5624C27.9953 18.8971 28.1296 18.2389 28.388 17.6258L20.9481 10.1503L1.2345 29.8501C-0.4115 31.5098 -0.4115 34.1956 1.2345 35.8553L29.9846 64.5972C30.3782 64.9912 30.8457 65.3037 31.3602 65.517C31.8747 65.7302 32.4261 65.84 32.9831 65.84C33.54 65.84 34.0915 65.7302 34.606 65.517C35.1205 65.3037 35.5879 64.9912 35.9815 64.5972L64.5945 35.9842C64.9892 35.5907 65.3024 35.1232 65.5161 34.6084C65.7298 34.0936 65.8398 33.5417 65.8398 32.9844C65.8398 32.427 65.7298 31.8751 65.5161 31.3603C65.3024 30.8456 64.9892 30.378 64.5945 29.9845Z" fill="black"/>
</svg>
