<svg width="59" height="66" viewBox="0 0 59 66" fill="none" xmlns="http://www.w3.org/2000/svg">
<path d="M34.9286 7.54684L48.4668 15.3653C49.0961 14.7026 49.8712 14.1956 50.7305 13.8846C51.5898 13.5736 52.5098 13.4672 53.4174 13.5737C54.325 13.6802 55.1954 13.9967 55.9594 14.4982C56.7234 14.9996 57.36 15.6722 57.8188 16.4626C58.272 17.2544 58.5351 18.1408 58.5871 19.0517C58.639 19.9626 58.4786 20.8732 58.1184 21.7115C57.7582 22.5497 57.208 23.2928 56.5114 23.8821C55.8148 24.4713 54.9908 24.8905 54.1043 25.1067V40.7408C54.9934 40.952 55.8207 41.3686 56.5197 41.9572C57.2188 42.5458 57.7702 43.29 58.1297 44.1301C58.4892 44.9703 58.6469 45.883 58.59 46.7951C58.5332 47.7072 58.2634 48.5932 57.8023 49.3822C57.3366 50.1862 56.6869 50.8684 55.9066 51.3728C55.1262 51.8771 54.2375 52.1894 53.3131 52.2839C52.3888 52.3784 51.4552 52.2524 50.589 51.9164C49.7227 51.5803 48.9485 51.0437 48.3297 50.3506L34.8738 58.1196C35.1415 58.9261 35.231 59.7811 35.136 60.6255C35.041 61.47 34.7638 62.2837 34.3236 63.0106C33.8834 63.7374 33.2907 64.36 32.5863 64.8354C31.882 65.3108 31.0828 65.6276 30.244 65.7639C29.4053 65.9003 28.5469 65.8529 27.7283 65.6251C26.9096 65.3973 26.1502 64.9945 25.5024 64.4445C24.8546 63.8945 24.334 63.2104 23.9764 62.4395C23.6189 61.6687 23.4329 60.8293 23.4315 59.9796C23.4315 59.4172 23.511 58.8548 23.6729 58.3089L10.1319 50.4987C9.50158 51.1573 8.72651 51.6601 7.86813 51.9672C7.00976 52.2742 6.09166 52.3772 5.1866 52.2678C4.28153 52.1585 3.41437 51.8398 2.65382 51.3372C1.89327 50.8345 1.26024 50.1616 0.804878 49.3719C0.349519 48.5821 0.0843488 47.6971 0.0303791 46.7871C-0.0235907 45.877 0.135123 44.9669 0.493944 44.1288C0.852765 43.2908 1.40183 42.5478 2.09764 41.9588C2.79345 41.3698 3.61687 40.9509 4.50267 40.7353L4.50541 25.1012C3.61707 24.8885 2.7906 24.4714 2.09167 23.8833C1.39275 23.2951 0.840651 22.5521 0.479245 21.7131C0.117839 20.8742 -0.0429084 19.9625 0.00977865 19.0506C0.0624657 18.1386 0.327134 17.2516 0.782751 16.4598C1.24009 15.669 1.87542 14.9957 2.63834 14.4932C3.40127 13.9908 4.27078 13.673 5.17791 13.5652C6.08504 13.4574 7.00482 13.5624 7.86427 13.872C8.72372 14.1816 9.4992 14.6873 10.1292 15.3488L23.6756 7.53038C23.4165 6.65515 23.3652 5.73152 23.5258 4.83298C23.6865 3.93444 24.0546 3.0858 24.6009 2.35458C25.1473 1.62336 25.8568 1.02975 26.6729 0.620989C27.4891 0.212227 28.3893 -0.000406238 29.3021 1.08321e-05C30.217 -0.00174766 31.1195 0.210625 31.9376 0.620139C32.7557 1.02965 33.4666 1.62494 34.0134 2.35838C34.5602 3.09183 34.9278 3.94306 35.0867 4.844C35.2456 5.74494 35.1915 6.67057 34.9286 7.54684ZM33.5158 9.95271C33.4656 10.0085 33.4125 10.0616 33.3567 10.1118L51.0812 40.8094C51.1525 40.7847 51.2348 40.7655 51.3062 40.7463V25.0903C50.5592 24.9051 49.856 24.5745 49.2368 24.1173C48.6177 23.6602 48.0947 23.0856 47.6978 22.4262C47.3008 21.7669 47.0377 21.0357 46.9235 20.2746C46.8093 19.5136 46.8462 18.7374 47.0321 17.9906L47.0842 17.7931L33.5158 9.95271ZM25.2448 10.1146L25.0802 9.94997L11.5118 17.7739C11.7253 18.5135 11.791 19.2879 11.7051 20.0529C11.6192 20.8179 11.3835 21.5585 11.0112 22.2323C10.639 22.9062 10.1377 23.5001 9.53589 23.9801C8.93408 24.4601 8.24358 24.8168 7.50384 25.0299L7.29535 25.0875V40.7463L7.52579 40.8094L25.2503 10.1118L25.2448 10.1146ZM30.9399 11.5054C29.87 11.8127 28.737 11.8127 27.6699 11.5054L9.94813 42.2002C10.7547 42.9766 11.3253 43.9697 11.5941 45.056H47.0129C47.279 43.9642 47.8551 42.9684 48.6671 42.192L30.9399 11.5054ZM33.6448 56.021L47.1226 48.2355C47.0824 48.1072 47.0477 47.9772 47.0184 47.846H11.5859L11.5283 48.0737L25.0774 55.8976C25.6239 55.3288 26.2801 54.8768 27.0062 54.5689C27.7324 54.261 28.5134 54.1036 29.3021 54.1062C31.0222 54.1062 32.5667 54.8441 33.6448 56.021Z" fill="black"/>
</svg>
