<svg width="74" height="66" viewBox="0 0 74 66" fill="none" xmlns="http://www.w3.org/2000/svg">
<path d="M37 26.3233C36.1339 26.3233 35.2763 26.4939 34.4761 26.8253C33.6759 27.1568 32.9489 27.6426 32.3365 28.255C31.724 28.8674 31.2382 29.5945 30.9068 30.3947C30.5753 31.1948 30.4047 32.0524 30.4047 32.9185C30.4047 33.7846 30.5753 34.6423 30.9068 35.4424C31.2382 36.2426 31.724 36.9697 32.3365 37.5821C32.9489 38.1945 33.6759 38.6803 34.4761 39.0118C35.2763 39.3432 36.1339 39.5138 37 39.5138C37.8661 39.5138 38.7237 39.3432 39.5239 39.0118C40.3241 38.6803 41.0511 38.1945 41.6635 37.5821C42.276 36.9697 42.7618 36.2426 43.0932 35.4424C43.4247 34.6423 43.5952 33.7846 43.5952 32.9185C43.5952 32.0524 43.4247 31.1948 43.0932 30.3947C42.7618 29.5945 42.276 28.8674 41.6635 28.255C41.0511 27.6426 40.3241 27.1568 39.5239 26.8253C38.7237 26.4939 37.8661 26.3233 37 26.3233ZM18.5247 46.0381L17.0693 45.6681C6.22217 42.9271 0 38.2743 0 32.9062C0 27.5381 6.22217 22.8854 17.0693 20.1443L18.5247 19.7774L18.9347 21.2204C20.0336 25.0058 21.4391 28.6954 23.1373 32.2526L23.4487 32.9093L23.1373 33.566C21.4363 37.122 20.0307 40.8118 18.9347 44.5982L18.5247 46.0381ZM16.3941 23.5144C8.14925 25.83 3.0895 29.3727 3.0895 32.9062C3.0895 36.4366 8.14925 39.9794 16.3941 42.298C17.4024 39.0912 18.6199 35.9538 20.0386 32.9062C18.6182 29.8593 17.4007 26.7218 16.3941 23.5144ZM55.4753 46.0381L55.0652 44.5921C53.9675 40.8068 52.5609 37.1181 50.8596 33.563L50.5482 32.9062L50.8596 32.2495C52.5603 28.693 53.9668 25.0033 55.0652 21.2173L55.4753 19.7743L56.9338 20.1412C67.7778 22.8823 74 27.535 74 32.9062C74 38.2774 67.7778 42.9271 56.9338 45.6681L55.4753 46.0381ZM53.9614 32.9062C55.4414 36.1098 56.6655 39.2579 57.6059 42.298C65.8538 39.9794 70.9105 36.4366 70.9105 32.9062C70.9105 29.3727 65.8508 25.833 57.6059 23.5144C56.599 26.7217 55.3815 29.8592 53.9614 32.9062ZM16.3725 23.499L15.9624 22.059C12.913 11.3105 13.838 3.60838 18.5 0.919713C23.0726 -1.71962 30.414 1.39763 38.1069 9.29405L39.1553 10.3701L38.1069 11.4462C35.3734 14.2878 32.8759 17.3474 30.6391 20.5945L30.2228 21.1895L29.4983 21.2512C25.5636 21.5614 21.6607 22.1904 17.8278 23.132L16.3725 23.499ZM22.2185 3.05646C21.3922 3.05646 20.6614 3.2353 20.0447 3.58988C16.9799 5.35663 16.4372 11.4986 18.5493 19.7866C21.835 19.0557 25.1649 18.5397 28.5177 18.2419C30.4523 15.4912 32.5659 12.8709 34.8447 10.3979C30.0347 5.7143 25.4807 3.05646 22.2185 3.05646ZM51.7846 65.8393C51.7815 65.8393 51.7815 65.8393 51.7846 65.8393C47.3908 65.8393 41.7483 62.5309 35.8931 56.5184L34.8447 55.4423L35.8931 54.3662C38.6259 51.5237 41.1224 48.4631 43.3578 45.2149L43.7741 44.6198L44.4956 44.5581C48.4322 44.2497 52.3373 43.6217 56.1722 42.6804L57.6275 42.3135L58.0407 43.7565C61.0839 54.4988 60.162 62.204 55.5 64.8896C54.3676 65.5299 53.0853 65.8577 51.7846 65.8393ZM39.1553 55.4145C43.9652 60.0981 48.5193 62.756 51.7815 62.756C52.6048 62.756 53.3417 62.5771 53.9552 62.2225C57.0201 60.4558 57.5658 54.3107 55.4507 46.0227C52.1641 46.7547 48.8331 47.2707 45.4792 47.5675C43.547 50.3201 41.4343 52.9415 39.1553 55.4145ZM57.6275 23.499L56.1722 23.132C52.3378 22.1877 48.4326 21.5586 44.4956 21.2512L43.7741 21.1895L43.3578 20.5945C41.1235 17.3463 38.6269 14.2867 35.8931 11.4462L34.8447 10.3701L35.8931 9.29405C43.5829 1.40071 50.9212 -1.71654 55.5 0.919713C60.162 3.60838 61.087 11.3105 58.0407 22.056L57.6275 23.499ZM45.4792 18.2419C49.0003 18.5625 52.3457 19.0836 55.4507 19.7866C57.5658 11.4986 57.0201 5.35663 53.9552 3.58988C50.9089 1.8293 45.1832 4.52721 39.1553 10.3979C41.433 12.871 43.5456 15.4913 45.4792 18.2419ZM22.2185 65.8393C20.9167 65.8582 19.6333 65.5304 18.5 64.8896C13.838 62.204 12.913 54.5019 15.9624 43.7565L16.3694 42.3135L17.8248 42.6804C21.386 43.5776 25.3142 44.2097 29.4952 44.5581L30.2197 44.6198L30.6329 45.2149C32.8701 48.4627 35.3676 51.5232 38.1007 54.3662L39.1491 55.4423L38.1007 56.5184C32.2486 62.5309 26.6061 65.8393 22.2185 65.8393ZM18.5493 46.0227C16.4342 54.3107 16.9799 60.4558 20.0447 62.2225C23.088 63.9585 28.8107 61.2821 34.8447 55.4145C32.5668 52.9397 30.4533 50.3184 28.5177 47.5675C25.1648 47.271 21.8348 46.7549 18.5493 46.0227ZM37 47.959C34.4624 47.959 31.8539 47.848 29.2423 47.6322L28.5177 47.5706L28.1015 46.9755C26.6243 44.8529 25.2356 42.6701 23.939 40.4326C22.6462 38.1934 21.4468 35.9015 20.3438 33.563L20.0386 32.9062L20.3438 32.2495C21.4466 29.9108 22.6461 27.619 23.939 25.3798C25.2155 23.1721 26.6184 20.9706 28.1015 18.837L28.5177 18.2419L29.2423 18.1802C34.4059 17.7424 39.5972 17.7424 44.7607 18.1802L45.4823 18.2419L45.8954 18.837C48.8529 23.0829 51.4489 27.5695 53.6562 32.2495L53.9676 32.9062L53.6562 33.563C51.4542 38.2457 48.8579 42.7327 45.8954 46.9755L45.4823 47.5706L44.7607 47.6322C42.1492 47.848 39.5376 47.959 37 47.959ZM30.2259 44.6167C34.7892 44.959 39.2108 44.959 43.7772 44.6167C46.3266 40.8897 48.59 36.9751 50.5482 32.9062C48.5935 28.8349 46.3288 24.9199 43.7741 21.1957C39.2645 20.8535 34.7355 20.8535 30.2259 21.1957C27.6701 24.9192 25.4053 28.8343 23.4518 32.9062C25.4121 36.9746 27.6765 40.8892 30.2259 44.6167Z" fill="black"/>
</svg>
