<svg width="190" height="190" viewBox="0 0 190 190" fill="none" xmlns="http://www.w3.org/2000/svg">
<path d="M74.8592 169.777C116.203 180.855 158.699 156.32 169.777 114.976C180.855 73.6326 156.32 31.1365 114.976 20.0585C73.6326 8.98048 31.1365 33.5156 20.0585 74.8593C8.98048 116.203 33.5156 158.699 74.8592 169.777Z" fill="#FFDD67"/>
<path opacity="0.8" d="M133.806 137.431C144.831 140.386 156.163 133.843 159.117 122.818C162.072 111.793 155.529 100.461 144.504 97.5065C133.479 94.5523 122.147 101.095 119.192 112.12C116.238 123.145 122.781 134.477 133.806 137.431Z" fill="#FF717F"/>
<path opacity="0.8" d="M39.9824 112.291C51.0074 115.246 62.3396 108.703 65.2938 97.6778C68.2479 86.6529 61.7052 75.3206 50.6802 72.3664C39.6553 69.4123 28.323 75.955 25.3688 86.98C22.4147 98.0049 28.9574 109.337 39.9824 112.291Z" fill="#FF717F"/>
<path d="M120.809 124.053C96.7859 132.861 74.395 126.594 57.9273 107.204C55.9 104.789 53.1014 107.248 53.8631 110.394C57.4269 122.047 67.1801 134.556 83.15 138.835C99.12 143.114 113.754 137.407 122.734 128.848C124.966 126.504 123.772 122.975 120.809 124.053Z" fill="#664E27"/>
<path d="M89.594 79.8515C88.2629 65.855 83.0144 57.4951 76.0276 55.623C69.0407 53.7509 60.3155 58.3666 52.1644 69.8223C51.3311 70.9362 53.2246 73.8506 54.8066 72.9372C60.5685 69.3997 66.5931 68.8744 72.0827 70.3453C77.5724 71.8163 82.5272 75.2835 85.7484 81.2281C86.9113 82.8769 89.7588 81.2329 89.594 79.8515Z" fill="#664E27"/>
<path d="M144.241 94.4942C142.91 80.4977 137.662 72.1378 130.675 70.2657C123.688 68.3936 114.963 73.0093 106.812 84.465C105.978 85.5789 107.872 88.4933 109.454 87.5799C115.216 84.0424 121.24 83.5171 126.73 84.988C132.22 86.459 137.175 89.9262 140.396 95.8708C141.309 97.4527 144.406 95.8756 144.241 94.4942Z" fill="#664E27"/>
</svg>
